<svg width="18" height="18" viewBox="0 0 18 18" fill="none" xmlns="http://www.w3.org/2000/svg">
<path d="M7.33848 6.4C7.33848 6.04102 7.04746 5.75 6.68848 5.75C6.32949 5.75 6.03848 6.04102 6.03848 6.4H7.33848ZM6.68848 8.53334L6.03848 8.53334L6.03848 8.53391L6.68848 8.53334ZM10.7887 10.5008C11.0427 10.2471 11.043 9.83556 10.7893 9.58156C10.5356 9.32756 10.124 9.3273 9.87003 9.58099L10.7887 10.5008ZM10.3051 6.64178C10.3051 7.00076 10.5962 7.29178 10.9551 7.29178C11.3141 7.29178 11.6051 7.00076 11.6051 6.64178H10.3051ZM10.9551 2.84445L10.3051 2.84379V2.84445H10.9551ZM6.09414 2.28843C6.02271 2.64024 6.24999 2.98334 6.6018 3.05478C6.9536 3.12622 7.29671 2.89893 7.36814 2.54713L6.09414 2.28843ZM6.03848 6.4V8.53334H7.33848V6.4H6.03848ZM6.03848 8.53391C6.03947 9.6589 6.71759 10.6727 7.75701 11.1031L8.25434 9.90195C7.7004 9.67259 7.339 9.13231 7.33848 8.53276L6.03848 8.53391ZM7.75701 11.1031C8.79642 11.5334 9.99271 11.2958 10.7887 10.5008L9.87003 9.58099C9.44582 10.0047 8.80828 10.1313 8.25434 9.90195L7.75701 11.1031ZM11.6051 6.64178V2.84445H10.3051V6.64178H11.6051ZM11.6051 2.8451C11.6066 1.41515 10.5242 0.216768 9.10153 0.0730606L8.97088 1.36648C9.72909 1.44307 10.3059 2.08173 10.3051 2.84379L11.6051 2.8451ZM9.10153 0.0730606C7.67883 -0.0706472 6.3787 0.887084 6.09414 2.28843L7.36814 2.54713C7.51979 1.8003 8.21267 1.28989 8.97088 1.36648L9.10153 0.0730606Z" fill="#BABABB"/>
<path d="M12.8425 12.5082C13.0937 12.2518 13.0895 11.8403 12.8331 11.589C12.5767 11.3378 12.1651 11.342 11.9139 11.5984L12.8425 12.5082ZM3.84486 8.53334L4.49486 8.53809V8.53334H3.84486ZM4.49486 7.11111C4.49486 6.75213 4.20385 6.46111 3.84486 6.46111C3.48588 6.46111 3.19486 6.75213 3.19486 7.11111H4.49486ZM14.4504 7.11111C14.4504 6.75213 14.1594 6.46111 13.8004 6.46111C13.4414 6.46111 13.1504 6.75213 13.1504 7.11111H14.4504ZM13.8004 8.53334L14.4504 8.5339V8.53334H13.8004ZM13.0824 9.29322C13.019 9.64657 13.2541 9.9844 13.6074 10.0478C13.9608 10.1112 14.2986 9.87613 14.362 9.52278L13.0824 9.29322ZM11.9139 11.5984C10.6792 12.8587 8.80314 13.2433 7.17219 12.5705L6.67646 13.7723C8.79733 14.6471 11.2369 14.147 12.8425 12.5082L11.9139 11.5984ZM7.17219 12.5705C5.54124 11.8978 4.48194 10.3023 4.49484 8.53809L3.19488 8.52858C3.17809 10.8227 4.55559 12.8974 6.67646 13.7723L7.17219 12.5705ZM4.49486 8.53334V7.11111H3.19486V8.53334H4.49486ZM13.1504 7.11111V8.53334H14.4504V7.11111H13.1504ZM13.1504 8.53277C13.1502 8.78776 13.1274 9.04224 13.0824 9.29322L14.362 9.52278C14.4205 9.19641 14.4501 8.86549 14.4504 8.5339L13.1504 8.53277Z" fill="#BABABB"/>
<path d="M8.82235 13.5111V16.3556" stroke="#BABABB" stroke-width="1.3" stroke-linecap="round" stroke-linejoin="round"/>
<path d="M5.97754 16.3556H11.6664" stroke="#BABABB" stroke-width="1.3" stroke-linecap="round" stroke-linejoin="round"/>
<path d="M1 0.711113L16.6444 16.3556" stroke="#FF3B30" stroke-width="1.3" stroke-linecap="round" stroke-linejoin="round"/>
</svg>
