<svg width="28" height="23" viewBox="0 0 28 23" fill="none" xmlns="http://www.w3.org/2000/svg">
<path d="M9.33945 8.4C9.33945 8.04102 9.04844 7.75 8.68945 7.75C8.33047 7.75 8.03945 8.04102 8.03945 8.4H9.33945ZM8.68945 10.5333H8.03945L8.03945 10.5339L8.68945 10.5333ZM12.7897 12.5008C13.0437 12.2471 13.0439 11.8356 12.7902 11.5816C12.5366 11.3276 12.125 11.3273 11.871 11.581L12.7897 12.5008ZM12.3061 8.64178C12.3061 9.00076 12.5971 9.29178 12.9561 9.29178C13.3151 9.29178 13.6061 9.00076 13.6061 8.64178H12.3061ZM12.9561 4.84445L12.3061 4.84379V4.84445H12.9561ZM8.09512 4.28843C8.02368 4.64024 8.25097 4.98334 8.60277 5.05478C8.95458 5.12622 9.29768 4.89893 9.36912 4.54713L8.09512 4.28843ZM8.03945 8.4V10.5333H9.33945V8.4H8.03945ZM8.03945 10.5339C8.04044 11.6589 8.71857 12.6727 9.75798 13.1031L10.2553 11.902C9.70138 11.6726 9.33998 11.1323 9.33945 10.5328L8.03945 10.5339ZM9.75798 13.1031C10.7974 13.5334 11.9937 13.2958 12.7897 12.5008L11.871 11.581C11.4468 12.0047 10.8093 12.1313 10.2553 11.902L9.75798 13.1031ZM13.6061 8.64178V4.84445H12.3061V8.64178H13.6061ZM13.6061 4.8451C13.6076 3.41515 12.5252 2.21677 11.1025 2.07306L10.9719 3.36648C11.7301 3.44307 12.3069 4.08173 12.3061 4.84379L13.6061 4.8451ZM11.1025 2.07306C9.6798 1.92935 8.37967 2.88708 8.09512 4.28843L9.36912 4.54713C9.52077 3.8003 10.2137 3.28989 10.9719 3.36648L11.1025 2.07306Z" fill="#BABABB"/>
<path d="M14.8425 14.5082C15.0937 14.2518 15.0895 13.8403 14.8331 13.589C14.5767 13.3378 14.1651 13.342 13.9139 13.5984L14.8425 14.5082ZM5.84486 10.5333L6.49486 10.5381V10.5333H5.84486ZM6.49486 9.11111C6.49486 8.75213 6.20385 8.46111 5.84486 8.46111C5.48588 8.46111 5.19486 8.75213 5.19486 9.11111H6.49486ZM16.4504 9.11111C16.4504 8.75213 16.1594 8.46111 15.8004 8.46111C15.4414 8.46111 15.1504 8.75213 15.1504 9.11111H16.4504ZM15.8004 10.5333L16.4504 10.5339V10.5333H15.8004ZM15.0824 11.2932C15.019 11.6466 15.2541 11.9844 15.6074 12.0478C15.9608 12.1112 16.2986 11.8761 16.362 11.5228L15.0824 11.2932ZM13.9139 13.5984C12.6792 14.8587 10.8031 15.2433 9.17219 14.5705L8.67646 15.7723C10.7973 16.6471 13.2369 16.147 14.8425 14.5082L13.9139 13.5984ZM9.17219 14.5705C7.54124 13.8978 6.48194 12.3023 6.49484 10.5381L5.19488 10.5286C5.17809 12.8227 6.55559 14.8974 8.67646 15.7723L9.17219 14.5705ZM6.49486 10.5333V9.11111H5.19486V10.5333H6.49486ZM15.1504 9.11111V10.5333H16.4504V9.11111H15.1504ZM15.1504 10.5328C15.1502 10.7878 15.1274 11.0422 15.0824 11.2932L16.362 11.5228C16.4205 11.1964 16.4501 10.8655 16.4504 10.5339L15.1504 10.5328Z" fill="#BABABB"/>
<path d="M10.8224 15.5111V18.3556" stroke="#BABABB" stroke-width="1.3" stroke-linecap="round" stroke-linejoin="round"/>
<path d="M7.97852 18.3556H13.6674" stroke="#BABABB" stroke-width="1.3" stroke-linecap="round" stroke-linejoin="round"/>
<mask id="mask0" mask-type="alpha" maskUnits="userSpaceOnUse" x="0" y="0" width="28" height="23">
<path d="M0.5 21L19.5 0.5H28L6 22.5L0.5 21Z" fill="#C4C4C4"/>
</mask>
<g mask="url(#mask0)">
<path fill-rule="evenodd" clip-rule="evenodd" d="M2.54077 18.8152L1.69224 19.6637C0.969773 18.9412 0.969773 17.7699 1.69224 17.0474L17.3367 1.40298C18.0592 0.680504 19.2305 0.680502 19.953 1.40298M19.953 1.40298C20.6755 2.12544 20.6755 3.2968 19.953 4.01927L4.30854 19.6637C3.58607 20.3862 2.41471 20.3862 1.69224 19.6637L2.54077 18.8152C2.79461 19.069 3.20617 19.069 3.46001 18.8152L19.1045 3.17074C19.3583 2.9169 19.3583 2.50534 19.1045 2.2515M2.54077 18.8152C2.28693 18.5613 2.28693 18.1498 2.54077 17.8959V18.8152ZM2.54077 17.8959L18.1852 2.2515L2.54077 17.8959ZM18.1852 2.2515C18.4391 1.99766 18.8506 1.99766 19.1045 2.2515H18.1852Z" fill="#212121"/>
</g>
<path d="M13 14L7.5 12.5V8L8.71429 8.4L9.57143 7L13 8.4V14Z" fill="#212121"/>
<path fill-rule="evenodd" clip-rule="evenodd" d="M2.54097 18.8152C2.28713 18.5613 2.28713 18.1498 2.54097 17.8959L18.1854 2.25149C18.4393 1.99765 18.8508 1.99765 19.1046 2.25149C19.3585 2.50533 19.3585 2.91689 19.1046 3.17073L3.46021 18.8152C3.20636 19.069 2.79481 19.069 2.54097 18.8152Z" fill="#FF3B30"/>
<path d="M3 2.71111L18.6444 18.3556" stroke="#FF3B30" stroke-width="1.3" stroke-linecap="round" stroke-linejoin="round"/>
</svg>
