<svg width="34" height="34" viewBox="0 0 34 34" fill="none" xmlns="http://www.w3.org/2000/svg">
<path opacity="0.3" fill-rule="evenodd" clip-rule="evenodd" d="M17 33C25.8366 33 33 25.8366 33 17C33 8.16344 25.8366 1 17 1C8.16344 1 1 8.16344 1 17C1 25.8366 8.16344 33 17 33Z" stroke="black"/>
<path d="M15.4517 14.8743C15.4517 14.5982 15.2278 14.3743 14.9517 14.3743C14.6755 14.3743 14.4517 14.5982 14.4517 14.8743H15.4517ZM14.9517 16.8436H14.4517L14.4517 16.844L14.9517 16.8436ZM18.6658 18.5889C18.8612 18.3938 18.8614 18.0772 18.6663 17.8818C18.4711 17.6864 18.1545 17.6863 17.9591 17.8814L18.6658 18.5889ZM18.3901 15.0975C18.3901 15.3737 18.614 15.5975 18.8901 15.5975C19.1663 15.5975 19.3901 15.3737 19.3901 15.0975H18.3901ZM18.8901 11.5923L18.3901 11.5918V11.5923H18.8901ZM14.501 11.099C14.4461 11.3696 14.6209 11.6335 14.8915 11.6884C15.1622 11.7434 15.4261 11.5686 15.481 11.2979L14.501 11.099ZM14.4517 14.8743V16.8436H15.4517V14.8743H14.4517ZM14.4517 16.844C14.4525 17.8421 15.0541 18.7414 15.9763 19.1232L16.3588 18.1993C15.8101 17.9721 15.4522 17.437 15.4517 16.8431L14.4517 16.844ZM15.9763 19.1232C16.8984 19.5051 17.9597 19.2942 18.6658 18.5889L17.9591 17.8814C17.539 18.301 16.9075 18.4265 16.3588 18.1993L15.9763 19.1232ZM19.3901 15.0975V11.5923H18.3901V15.0975H19.3901ZM19.3901 11.5928C19.3914 10.3242 18.4312 9.26108 17.169 9.13359L17.0685 10.1285C17.8195 10.2044 18.3909 10.837 18.3901 11.5918L19.3901 11.5928ZM17.169 9.13359C15.9069 9.0061 14.7535 9.85575 14.501 11.099L15.481 11.2979C15.6313 10.5582 16.3175 10.0527 17.0685 10.1285L17.169 9.13359Z" fill="black"/>
<path d="M20.5599 20.4427C20.7531 20.2455 20.7499 19.9289 20.5526 19.7357C20.3554 19.5424 20.0388 19.5456 19.8456 19.7429L20.5599 20.4427ZM12.3258 16.8436L12.8258 16.8472V16.8436H12.3258ZM12.8258 15.5308C12.8258 15.2546 12.6019 15.0308 12.3258 15.0308C12.0497 15.0308 11.8258 15.2546 11.8258 15.5308H12.8258ZM22.0156 15.5308C22.0156 15.2546 21.7917 15.0308 21.5156 15.0308C21.2394 15.0308 21.0156 15.2546 21.0156 15.5308H22.0156ZM21.5156 16.8436L22.0156 16.844V16.8436H21.5156ZM20.9512 17.5627C20.9024 17.8345 21.0833 18.0943 21.3551 18.1431C21.6269 18.1919 21.8867 18.0111 21.9355 17.7393L20.9512 17.5627ZM19.8456 19.7429C18.6773 20.9353 16.9022 21.2992 15.3591 20.6627L14.9777 21.5871C16.8978 22.3791 19.1064 21.9263 20.5599 20.4427L19.8456 19.7429ZM15.3591 20.6627C13.8159 20.0261 12.8136 18.5165 12.8258 16.8472L11.8258 16.8399C11.8106 18.9168 13.0577 20.7951 14.9777 21.5871L15.3591 20.6627ZM12.8258 16.8436V15.5308H11.8258V16.8436H12.8258ZM21.0156 15.5308V16.8436H22.0156V15.5308H21.0156ZM21.0156 16.8431C21.0153 17.0844 20.9938 17.3252 20.9512 17.5627L21.9355 17.7393C21.9885 17.4438 22.0153 17.1442 22.0156 16.844L21.0156 16.8431Z" fill="black"/>
<path d="M16.9205 21.4385V24.0641" stroke="black" stroke-linecap="round" stroke-linejoin="round"/>
<path d="M14.2949 24.0642H19.5462" stroke="black" stroke-linecap="round" stroke-linejoin="round"/>
<path d="M9.7002 9.62305L24.1412 24.0641" stroke="#FF3B30" stroke-linecap="round" stroke-linejoin="round"/>
</svg>
