<svg width="20" height="17" viewBox="0 0 20 17" fill="none" xmlns="http://www.w3.org/2000/svg">
<path d="M14.2468 15.9026V14.2468C14.2468 12.4178 12.7641 10.9351 10.9351 10.9351H4.31169C2.48269 10.9351 1 12.4178 1 14.2468V15.9026" stroke="white" stroke-width="1.3" stroke-linecap="round" stroke-linejoin="round"/>
<path fill-rule="evenodd" clip-rule="evenodd" d="M7.62321 7.62338C9.45221 7.62338 10.9349 6.14068 10.9349 4.31169C10.9349 2.48269 9.45221 1 7.62321 1C5.79422 1 4.31152 2.48269 4.31152 4.31169C4.31152 6.14068 5.79422 7.62338 7.62321 7.62338Z" stroke="white" stroke-width="1.3" stroke-linecap="round" stroke-linejoin="round"/>
<path d="M19.2142 15.9026V14.2468C19.2131 12.7375 18.1918 11.42 16.7305 11.0427" stroke="white" stroke-width="1.3" stroke-linecap="round" stroke-linejoin="round"/>
<path d="M13.4189 1.10763C14.8843 1.48282 15.9092 2.80321 15.9092 4.31583C15.9092 5.82845 14.8843 7.14884 13.4189 7.52403" stroke="white" stroke-width="1.3" stroke-linecap="round" stroke-linejoin="round"/>
</svg>
