<svg xmlns="http://www.w3.org/2000/svg" xmlns:xlink="http://www.w3.org/1999/xlink" width="256" height="256" viewBox="0 0 256 256">
    <defs>
        <path id="a" d="M0 0h256v256H0z"/>
    </defs>
    <g fill="none" fill-rule="evenodd">
        <mask id="b" fill="#fff">
            <use xlink:href="#a"/>
        </mask>
        <use fill="#262626" xlink:href="#a"/>
        <path fill="#454545" fill-rule="nonzero" d="M28 300h.01v-29.697c0-16.713 5.599-32.562 16.194-45.832 14.605-18.29 36.482-28.78 60.02-28.78h47.563a76.952 76.952 0 0 1 41.66 12.21C215.084 221.79 228 245.121 228 270.303V300h-24.641v-29.697c0-27.839-23.141-50.489-51.578-50.489H104.22c-28.442 0-51.578 22.65-51.578 50.49V300H28zm100.324-113.78c-40.616 0-73.657-32.352-73.657-72.11 0-39.763 33.041-72.11 73.657-72.11s73.657 32.347 73.657 72.11-33.047 72.11-73.657 72.11zm0-120.101c-27.03 0-49.021 21.529-49.021 47.991 0 26.457 21.99 47.987 49.02 47.987 27.026 0 49.017-21.53 49.017-47.987 0-26.462-21.991-47.991-49.016-47.991z" mask="url(#b)"/>
    </g>
</svg>
