<svg xmlns="http://www.w3.org/2000/svg" width="24" height="24" viewBox="0 0 24 24">
    <g fill="#a80000" fill-rule="evenodd">
        <path d="M17.189 7.467a.65.65 0 0 0-.193-.464.671.671 0 0 0-.927 0L12 11.073 7.931 7.003a.67.67 0 0 0-.928 0 .65.65 0 0 0 0 .927L11.073 12l-4.07 4.069a.657.657 0 0 0 0 .927c.247.248.68.249.928 0L12 12.928l4.07 4.07a.653.653 0 0 0 .927-.001.657.657 0 0 0 0-.928L12.926 12l4.07-4.07a.653.653 0 0 0 .192-.463z"/>
        <path fill-rule="nonzero" d="M12 0C5.383 0 0 5.383 0 12s5.383 12 12 12 12-5.383 12-12S18.617 0 12 0zm0 22.688C6.107 22.688 1.312 17.893 1.312 12 1.312 6.107 6.107 1.312 12 1.312c5.893 0 10.688 4.795 10.688 10.688 0 5.893-4.795 10.688-10.688 10.688z"/>
    </g>
</svg>
