<svg width="1440" height="1024" viewBox="0 0 1440 1024" fill="none" xmlns="http://www.w3.org/2000/svg">
<path fill-rule="evenodd" clip-rule="evenodd" d="M0 0H1661V1024H0V0Z" fill="#121212"/>
<path opacity="0.504" fill-rule="evenodd" clip-rule="evenodd" d="M193.5 888C245.139 888 287 846.139 287 794.5C287 742.861 245.139 701 193.5 701C141.861 701 100 742.861 100 794.5C100 846.139 141.861 888 193.5 888Z" fill="#2CD79A"/>
<path opacity="0.511" fill-rule="evenodd" clip-rule="evenodd" d="M1501.5 904C1553.14 904 1595 862.139 1595 810.5C1595 758.861 1553.14 717 1501.5 717C1449.86 717 1408 758.861 1408 810.5C1408 862.139 1449.86 904 1501.5 904Z" fill="#2CD79A"/>
<path opacity="0.142" fill-rule="evenodd" clip-rule="evenodd" d="M1405.5 794C1447.2 794 1481 760.197 1481 718.5C1481 676.803 1447.2 643 1405.5 643C1363.8 643 1330 676.803 1330 718.5C1330 760.197 1363.8 794 1405.5 794Z" fill="#2CD79A"/>
<path opacity="0.096" fill-rule="evenodd" clip-rule="evenodd" d="M269 775C304.899 775 334 745.899 334 710C334 674.101 304.899 645 269 645C233.101 645 204 674.101 204 710C204 745.899 233.101 775 269 775Z" fill="#2CD79A"/>
<path opacity="0.371" fill-rule="evenodd" clip-rule="evenodd" d="M1123.5 934C1151.39 934 1174 911.39 1174 883.5C1174 855.61 1151.39 833 1123.5 833C1095.61 833 1073 855.61 1073 883.5C1073 911.39 1095.61 934 1123.5 934Z" fill="#2CD79A"/>
<path opacity="0.397" fill-rule="evenodd" clip-rule="evenodd" d="M1073.5 293C1101.39 293 1124 270.39 1124 242.5C1124 214.61 1101.39 192 1073.5 192C1045.61 192 1023 214.61 1023 242.5C1023 270.39 1045.61 293 1073.5 293Z" fill="#2CD79A"/>
<path opacity="0.177" fill-rule="evenodd" clip-rule="evenodd" d="M1044.5 240C1060.24 240 1073 227.24 1073 211.5C1073 195.76 1060.24 183 1044.5 183C1028.76 183 1016 195.76 1016 211.5C1016 227.24 1028.76 240 1044.5 240Z" fill="#2CD79A"/>
<path opacity="0.21" fill-rule="evenodd" clip-rule="evenodd" d="M310 423C341.48 423 367 397.704 367 366.5C367 335.296 341.48 310 310 310C278.52 310 253 335.296 253 366.5C253 397.704 278.52 423 310 423Z" fill="#2CD79A"/>
<path opacity="0.139" fill-rule="evenodd" clip-rule="evenodd" d="M601.5 262C621.106 262 637 246.106 637 226.5C637 206.894 621.106 191 601.5 191C581.894 191 566 206.894 566 226.5C566 246.106 581.894 262 601.5 262Z" fill="#2CD79A"/>
<path opacity="0.091" fill-rule="evenodd" clip-rule="evenodd" d="M260.5 364C280.106 364 296 348.106 296 328.5C296 308.894 280.106 293 260.5 293C240.894 293 225 308.894 225 328.5C225 348.106 240.894 364 260.5 364Z" fill="#2CD79A"/>
<path opacity="0.196" fill-rule="evenodd" clip-rule="evenodd" d="M589 926C601.703 926 612 915.703 612 903C612 890.297 601.703 880 589 880C576.297 880 566 890.297 566 903C566 915.703 576.297 926 589 926Z" fill="#2CD79A"/>
<path opacity="0.162" fill-rule="evenodd" clip-rule="evenodd" d="M1308 227C1341.69 227 1369 199.689 1369 166C1369 132.311 1341.69 105 1308 105C1274.31 105 1247 132.311 1247 166C1247 199.689 1274.31 227 1308 227Z" fill="#2CD79A"/>
<path opacity="0.235" fill-rule="evenodd" clip-rule="evenodd" d="M1431 956C1443.7 956 1454 945.703 1454 933C1454 920.297 1443.7 910 1431 910C1418.3 910 1408 920.297 1408 933C1408 945.703 1418.3 956 1431 956Z" fill="#2CD79A"/>
</svg>
