<svg xmlns="http://www.w3.org/2000/svg" width="50" height="50" viewBox="0 0 50 50">
    <g fill="none" fill-rule="evenodd">
        <rect width="48" height="48" x="1" y="1" stroke="#FFF" stroke-width="2" rx="12"/>
        <path fill="#FFF" d="M30.54 14.398a1.156 1.156 0 0 0-1.135-.368c-.42.096-.748.415-.847.824-.099.408.048.836.379 1.105l8.18 7.973H10.08A1.125 1.125 0 0 0 9 25.042c0 .59.475 1.078 1.081 1.11h27.035l-8.192 7.963a1.109 1.109 0 0 0 0 1.561c.212.207.5.324.802.324.3 0 .589-.117.801-.324l10.132-9.865a1.07 1.07 0 0 0 .341-.78 1.07 1.07 0 0 0-.341-.78L30.54 14.398z"/>
    </g>
</svg>
